<svg id="visual" viewBox="0 0 960 540" width="960" height="540" xmlns="http://www.w3.org/2000/svg" xmlns:xlink="http://www.w3.org/1999/xlink" version="1.1"><rect x="0" y="0" width="960" height="540" fill="#001220"></rect><path d="M0 326L20 331.8C40 337.7 80 349.3 120 347.5C160 345.7 200 330.3 240 330.5C280 330.7 320 346.3 360 357C400 367.7 440 373.3 480 368.8C520 364.3 560 349.7 600 341.8C640 334 680 333 720 332.7C760 332.3 800 332.7 840 327.5C880 322.3 920 311.7 940 306.3L960 301L960 541L940 541C920 541 880 541 840 541C800 541 760 541 720 541C680 541 640 541 600 541C560 541 520 541 480 541C440 541 400 541 360 541C320 541 280 541 240 541C200 541 160 541 120 541C80 541 40 541 20 541L0 541Z" fill="#efe6fc"></path><path d="M0 342L20 355.2C40 368.3 80 394.7 120 398C160 401.3 200 381.7 240 370.5C280 359.3 320 356.7 360 366.7C400 376.7 440 399.3 480 397.7C520 396 560 370 600 359.3C640 348.7 680 353.3 720 369.7C760 386 800 414 840 424.8C880 435.7 920 429.3 940 426.2L960 423L960 541L940 541C920 541 880 541 840 541C800 541 760 541 720 541C680 541 640 541 600 541C560 541 520 541 480 541C440 541 400 541 360 541C320 541 280 541 240 541C200 541 160 541 120 541C80 541 40 541 20 541L0 541Z" fill="#c7d7fe"></path><path d="M0 464L20 460.3C40 456.7 80 449.3 120 441.5C160 433.7 200 425.3 240 427.5C280 429.7 320 442.3 360 452.8C400 463.3 440 471.7 480 470.8C520 470 560 460 600 452.8C640 445.7 680 441.3 720 445.3C760 449.3 800 461.7 840 459.2C880 456.7 920 439.3 940 430.7L960 422L960 541L940 541C920 541 880 541 840 541C800 541 760 541 720 541C680 541 640 541 600 541C560 541 520 541 480 541C440 541 400 541 360 541C320 541 280 541 240 541C200 541 160 541 120 541C80 541 40 541 20 541L0 541Z" fill="#85cdf8"></path><path d="M0 464L20 468C40 472 80 480 120 483.3C160 486.7 200 485.3 240 478.3C280 471.3 320 458.7 360 463.2C400 467.7 440 489.3 480 493.2C520 497 560 483 600 478.3C640 473.7 680 478.3 720 479.5C760 480.7 800 478.3 840 477.5C880 476.7 920 477.3 940 477.7L960 478L960 541L940 541C920 541 880 541 840 541C800 541 760 541 720 541C680 541 640 541 600 541C560 541 520 541 480 541C440 541 400 541 360 541C320 541 280 541 240 541C200 541 160 541 120 541C80 541 40 541 20 541L0 541Z" fill="#10c4dd"></path></svg>