<svg width="7459" height="2228" viewBox="0 0 7459 2228" fill="none" xmlns="http://www.w3.org/2000/svg">
<path d="M2441.58 520.928C2413.96 520.928 2387.69 516.174 2362.79 506.665C2338.34 497.157 2316.6 482.894 2297.58 463.877C2278.56 444.407 2263.62 420.636 2252.75 392.564C2241.88 364.038 2236.45 331.211 2236.45 294.083C2236.45 245.183 2245.73 203.526 2264.3 169.115C2283.32 134.25 2308.68 107.763 2340.37 89.6512C2372.52 71.0871 2408.3 61.805 2447.69 61.805C2475.77 61.805 2501.13 67.6912 2523.77 79.4636C2546.41 90.7832 2565.2 103.688 2580.14 118.177L2525.13 179.982C2514.71 170.02 2503.16 162.323 2490.48 156.89C2478.26 151.003 2463.99 148.06 2447.69 148.06C2426.86 148.06 2408.3 153.947 2392 165.719C2375.69 177.039 2362.79 193.339 2353.28 214.62C2343.77 235.9 2339.01 261.256 2339.01 290.687C2339.01 321.024 2343.77 347.059 2353.28 368.792C2362.79 390.073 2375.92 406.374 2392.67 417.693C2409.88 429.013 2429.58 434.673 2451.77 434.673C2468.07 434.673 2482.79 431.05 2495.92 423.806C2509.05 416.561 2521.05 407.053 2531.92 395.28L2586.94 455.727C2568.82 477.008 2547.54 493.308 2523.09 504.628C2498.64 515.494 2471.47 520.928 2441.58 520.928Z" fill="black"/>
<path d="M2685.84 512.778V175.907H2767.35L2775.5 249.258H2777.54C2794.29 221.638 2814.44 201.262 2837.99 188.132C2861.99 174.548 2887.35 167.756 2914.06 167.756C2929.01 167.756 2941.01 168.888 2950.06 171.152C2959.57 173.416 2969.31 176.812 2979.27 181.34L2958.89 264.879C2948.48 261.709 2938.97 259.445 2930.36 258.087C2922.21 256.276 2911.8 255.37 2899.12 255.37C2878.29 255.37 2857.69 261.483 2837.31 273.708C2817.39 285.933 2800.18 307.214 2785.69 337.55V512.778H2685.84Z" fill="black"/>
<path d="M3111.46 644.538C3101.49 644.538 3092.21 643.859 3083.61 642.5C3075 641.142 3067.08 639.557 3059.83 637.746L3077.49 561.678C3082.02 563.037 3086.55 563.942 3091.08 564.395C3095.61 565.301 3099.91 565.753 3103.98 565.753C3123.46 565.753 3138.63 561.452 3149.49 552.849C3160.81 544.699 3169.19 534.285 3174.63 521.607L3181.42 503.949L3035.38 175.907H3134.55L3190.93 320.571C3197.27 336.418 3203.15 352.945 3208.59 370.151C3214.02 386.904 3219.45 404.11 3224.89 421.768H3227.61C3232.13 405.015 3237.11 388.036 3242.55 370.83C3247.98 353.624 3253.19 336.871 3258.17 320.571L3307.76 175.907H3402.17L3269.04 516.174C3258.62 544.246 3246.4 567.791 3232.36 586.808C3218.78 605.825 3202.25 620.088 3182.78 629.596C3163.76 639.557 3139.98 644.538 3111.46 644.538Z" fill="black"/>
<path d="M3470.51 637.746V175.907H3552.02L3559.49 209.865H3561.53C3575.56 197.64 3591.19 187.679 3608.39 179.982C3626.05 171.832 3643.94 167.756 3662.05 167.756C3690.13 167.756 3714.13 174.775 3734.05 188.811C3754.43 202.847 3770.05 222.77 3780.92 248.578C3791.79 274.387 3797.22 304.497 3797.22 338.909C3797.22 377.395 3790.2 410.222 3776.16 437.389C3762.58 464.556 3744.69 485.384 3722.5 499.873C3700.32 513.91 3676.54 520.928 3651.18 520.928C3636.24 520.928 3621.52 517.758 3607.03 511.419C3593 505.08 3580.09 496.025 3568.32 484.252H3565.6L3570.36 539.266V637.746H3470.51ZM3628.09 439.427C3640.77 439.427 3652.09 436.031 3662.05 429.239C3672.01 422.447 3679.94 411.807 3685.83 397.318C3691.71 382.376 3694.66 363.359 3694.66 340.267C3694.66 319.892 3692.39 303.139 3687.86 290.008C3683.33 276.425 3676.54 266.237 3667.49 259.445C3658.88 252.653 3647.34 249.258 3632.84 249.258C3621.98 249.258 3611.34 251.748 3600.92 256.728C3590.96 261.256 3580.77 269.18 3570.36 280.5V417.014C3579.86 424.711 3589.6 430.371 3599.56 433.993C3609.98 437.616 3619.49 439.427 3628.09 439.427Z" fill="black"/>
<path d="M4092.42 520.928C4056.65 520.928 4028.12 514.815 4006.84 502.59C3986.01 489.912 3970.84 472.48 3961.33 450.294C3951.82 428.107 3947.07 402.299 3947.07 372.868V254.012H3862.84V179.982L3951.82 175.907L3964.73 72.6719H4046.91V175.907H4189.55V254.012H4046.91V372.188C4046.91 388.941 4049.4 402.525 4054.39 412.939C4059.37 423.353 4067.06 431.05 4077.48 436.031C4087.89 440.559 4101.25 442.823 4117.55 442.823C4130.69 442.823 4142.69 441.691 4153.55 439.427C4164.42 437.163 4174.84 434.22 4184.8 430.598L4202.46 502.59C4187.52 507.118 4170.99 511.193 4152.88 514.815C4135.22 518.89 4115.06 520.928 4092.42 520.928Z" fill="black"/>
<path d="M4439.93 520.928C4410.49 520.928 4382.64 514.136 4356.38 500.553C4330.12 486.516 4308.83 466.367 4292.53 440.106C4276.23 413.392 4268.08 381.47 4268.08 344.342C4268.08 307.214 4276.23 275.519 4292.53 249.258C4308.83 222.543 4330.12 202.394 4356.38 188.811C4382.64 174.775 4410.49 167.756 4439.93 167.756C4469.36 167.756 4497.21 174.775 4523.47 188.811C4549.74 202.394 4571.02 222.543 4587.32 249.258C4603.62 275.519 4611.77 307.214 4611.77 344.342C4611.77 381.47 4603.62 413.392 4587.32 440.106C4571.02 466.367 4549.74 486.516 4523.47 500.553C4497.21 514.136 4469.36 520.928 4439.93 520.928ZM4439.93 440.106C4455.32 440.106 4468 436.257 4477.96 428.56C4488.38 420.863 4496.08 409.769 4501.06 395.28C4506.49 380.791 4509.21 363.812 4509.21 344.342C4509.21 324.872 4506.49 307.893 4501.06 293.404C4496.08 278.915 4488.38 267.822 4477.96 260.124C4468 252.427 4455.32 248.578 4439.93 248.578C4424.53 248.578 4411.63 252.427 4401.21 260.124C4391.25 267.822 4383.55 278.915 4378.12 293.404C4373.14 307.893 4370.65 324.872 4370.65 344.342C4370.65 363.812 4373.14 380.791 4378.12 395.28C4383.55 409.769 4391.25 420.863 4401.21 428.56C4411.63 436.257 4424.53 440.106 4439.93 440.106Z" fill="black"/>
<path d="M4831.58 656.084C4802.15 656.084 4775.88 652.914 4752.79 646.575C4730.15 640.689 4712.04 631.407 4698.45 618.729C4685.32 606.051 4678.75 589.751 4678.75 569.829C4678.75 556.245 4683.06 543.793 4691.66 532.474C4700.72 521.154 4713.85 511.193 4731.05 502.59V499.873C4721.55 493.534 4713.39 485.837 4706.6 476.781C4700.26 467.726 4697.09 456.18 4697.09 442.144C4697.09 430.824 4700.72 419.504 4707.96 408.185C4715.66 396.865 4725.39 387.13 4737.17 378.98V376.263C4724.94 368.113 4714.53 356.567 4705.92 341.625C4697.32 326.684 4693.02 309.478 4693.02 290.008C4693.02 262.841 4699.58 240.202 4712.72 222.091C4726.3 203.979 4743.96 190.396 4765.7 181.34C4787.88 172.284 4811.66 167.756 4837.02 167.756C4857.85 167.756 4876.41 170.473 4892.71 175.907H5029.24V249.258H4961.32C4965.39 254.238 4968.79 260.804 4971.5 268.954C4974.67 276.651 4976.26 284.801 4976.26 293.404C4976.26 319.213 4969.92 340.494 4957.24 357.247C4945.01 373.547 4928.49 385.772 4907.66 393.922C4886.83 402.072 4863.28 406.147 4837.02 406.147C4830.68 406.147 4823.43 405.694 4815.28 404.789C4807.13 403.43 4798.98 401.619 4790.83 399.355C4785.39 402.978 4781.54 406.6 4779.28 410.222C4777.02 413.844 4775.88 418.599 4775.88 424.485C4775.88 433.088 4780.41 439.427 4789.47 443.502C4798.98 447.577 4813.47 449.614 4832.94 449.614H4895.43C4939.81 449.614 4973.54 456.18 4996.64 469.311C5020.18 482.441 5031.96 504.175 5031.96 534.511C5031.96 558.056 5023.81 578.884 5007.5 596.996C4991.2 615.56 4967.88 630.049 4937.54 640.463C4907.66 650.877 4872.34 656.084 4831.58 656.084ZM4837.02 345.701C4846.53 345.701 4855.13 343.663 4862.83 339.588C4870.52 335.513 4876.64 329.4 4881.17 321.25C4885.69 312.647 4887.96 302.233 4887.96 290.008C4887.96 278.236 4885.69 268.274 4881.17 260.124C4876.64 251.974 4870.52 245.862 4862.83 241.787C4855.13 237.259 4846.53 234.995 4837.02 234.995C4827.96 234.995 4819.58 237.259 4811.88 241.787C4804.19 245.862 4798.07 251.974 4793.54 260.124C4789.02 268.274 4786.75 278.236 4786.75 290.008C4786.75 302.233 4789.02 312.647 4793.54 321.25C4798.07 329.4 4804.19 335.513 4811.88 339.588C4819.58 343.663 4827.96 345.701 4837.02 345.701ZM4845.85 592.921C4863.96 592.921 4879.81 591.109 4893.39 587.487C4906.98 583.865 4917.62 578.884 4925.32 572.545C4933.01 566.659 4936.86 559.867 4936.86 552.17C4936.86 540.85 4931.88 533.606 4921.92 530.436C4911.96 527.72 4897.24 526.361 4877.77 526.361H4835.66C4823.43 526.361 4813.24 525.909 4805.09 525.003C4797.39 524.097 4790.37 522.965 4784.04 521.607C4775.43 527.04 4769.32 532.247 4765.7 537.228C4762.07 542.662 4760.26 548.548 4760.26 554.887C4760.26 567.112 4767.96 576.394 4783.36 582.733C4798.75 589.525 4819.58 592.921 4845.85 592.921Z" fill="black"/>
<path d="M5129.5 512.778V175.907H5211.01L5219.16 249.258H5221.2C5237.95 221.638 5258.1 201.262 5281.65 188.132C5305.65 174.548 5331.01 167.756 5357.73 167.756C5372.67 167.756 5384.67 168.888 5393.73 171.152C5403.23 173.416 5412.97 176.812 5422.93 181.34L5402.56 264.879C5392.14 261.709 5382.63 259.445 5374.03 258.087C5365.88 256.276 5355.46 255.37 5342.78 255.37C5321.95 255.37 5301.35 261.483 5280.97 273.708C5261.05 285.933 5243.84 307.214 5229.35 337.55V512.778H5129.5Z" fill="black"/>
<path d="M5610.14 520.928C5587.5 520.928 5567.8 516.4 5551.04 507.344C5534.74 498.289 5522.06 486.064 5513.01 470.669C5503.95 455.274 5499.42 438.068 5499.42 419.052C5499.42 381.47 5516.4 352.719 5550.36 332.796C5584.78 312.874 5641.83 300.649 5721.53 296.121C5720.17 285.707 5716.78 276.877 5711.34 269.633C5705.91 262.388 5697.98 256.955 5687.57 253.333C5677.61 249.258 5664.93 247.22 5649.53 247.22C5638.66 247.22 5627.8 248.578 5616.93 251.295C5606.06 253.559 5594.74 257.181 5582.97 262.162C5571.65 266.69 5559.65 272.123 5546.97 278.462L5511.65 213.261C5527.04 204.206 5543.12 196.282 5559.87 189.49C5577.08 182.698 5594.74 177.491 5612.85 173.869C5631.42 169.794 5650.21 167.756 5669.23 167.756C5700.93 167.756 5728.1 173.416 5750.74 184.736C5773.38 195.603 5790.81 212.356 5803.04 234.995C5815.27 257.181 5821.38 285.48 5821.38 319.892V512.778H5739.87L5732.4 474.744H5729.68C5712.93 487.422 5694.36 498.289 5673.98 507.344C5653.61 516.4 5632.33 520.928 5610.14 520.928ZM5642.06 443.502C5657 443.502 5671.04 440.559 5684.17 434.673C5697.31 428.334 5709.76 420.636 5721.53 411.581V355.888C5688.48 357.699 5662.66 361.095 5644.1 366.076C5625.99 371.056 5613.31 377.395 5606.06 385.093C5598.82 392.79 5595.19 401.619 5595.19 411.581C5595.19 418.372 5597 424.259 5600.63 429.239C5604.7 434.22 5610.14 437.842 5616.93 440.106C5624.17 442.37 5632.55 443.502 5642.06 443.502Z" fill="black"/>
<path d="M5914.17 637.746V175.907H5995.68L6003.15 209.865H6005.19C6019.22 197.64 6034.85 187.679 6052.05 179.982C6069.71 171.832 6087.6 167.756 6105.71 167.756C6133.79 167.756 6157.79 174.775 6177.71 188.811C6198.09 202.847 6213.71 222.77 6224.58 248.578C6235.45 274.387 6240.88 304.497 6240.88 338.909C6240.88 377.395 6233.86 410.222 6219.83 437.389C6206.24 464.556 6188.35 485.384 6166.17 499.873C6143.98 513.91 6120.2 520.928 6094.85 520.928C6079.9 520.928 6065.19 517.758 6050.7 511.419C6036.66 505.08 6023.75 496.025 6011.98 484.252H6009.26L6014.02 539.266V637.746H5914.17ZM6071.75 439.427C6084.43 439.427 6095.75 436.031 6105.71 429.239C6115.68 422.447 6123.6 411.807 6129.49 397.318C6135.37 382.376 6138.32 363.359 6138.32 340.267C6138.32 319.892 6136.05 303.139 6131.53 290.008C6127 276.425 6120.2 266.237 6111.15 259.445C6102.54 252.653 6091 249.258 6076.51 249.258C6065.64 249.258 6055 251.748 6044.58 256.728C6034.62 261.256 6024.43 269.18 6014.02 280.5V417.014C6023.53 424.711 6033.26 430.371 6043.22 433.993C6053.64 437.616 6063.15 439.427 6071.75 439.427Z" fill="black"/>
<path d="M6321.45 512.778V36.6755H6421.29V153.494L6415.86 218.015H6417.9C6430.58 204.885 6445.97 193.339 6464.09 183.378C6482.65 172.963 6504.61 167.756 6529.97 167.756C6568.01 167.756 6595.63 179.982 6612.84 204.432C6630.5 228.882 6639.33 262.388 6639.33 304.95V512.778H6539.48V317.854C6539.48 295.215 6535.63 278.689 6527.93 268.274C6520.69 257.86 6508.01 252.653 6489.9 252.653C6476.31 252.653 6464.31 255.823 6453.9 262.162C6443.94 268.048 6433.07 276.651 6421.29 287.971V512.778H6321.45Z" fill="black"/>
<path d="M6868.65 512.778V254.012H6732.8V175.907H6968.49V512.778H6868.65ZM6914.16 122.931C6895.14 122.931 6879.29 117.497 6866.61 106.631C6853.93 95.311 6847.59 80.5955 6847.59 62.4842C6847.59 43.92 6853.93 28.9782 6866.61 17.6586C6879.29 5.8862 6895.14 0 6914.16 0C6933.63 0 6949.48 5.8862 6961.7 17.6586C6974.38 28.9782 6980.72 43.92 6980.72 62.4842C6980.72 80.5955 6974.38 95.311 6961.7 106.631C6949.48 117.497 6933.63 122.931 6914.16 122.931Z" fill="black"/>
<path d="M7320.07 520.928C7284.75 520.928 7252.83 514.136 7224.3 500.553C7196.23 486.516 7173.81 466.367 7157.06 440.106C7140.76 413.392 7132.6 381.47 7132.6 344.342C7132.6 307.214 7141.66 275.519 7159.77 249.258C7177.89 222.543 7201.66 202.394 7231.09 188.811C7260.98 174.775 7293.13 167.756 7327.55 167.756C7354.26 167.756 7378.49 172.058 7400.22 180.661C7421.96 188.811 7439.85 199.678 7453.88 213.261L7407.7 275.066C7394.56 266.011 7381.88 259.445 7369.66 255.37C7357.88 250.842 7345.66 248.578 7332.98 248.578C7313.96 248.578 7296.98 252.427 7282.04 260.124C7267.09 267.822 7255.55 278.915 7247.4 293.404C7239.25 307.893 7235.17 324.872 7235.17 344.342C7235.17 363.812 7239.02 380.791 7246.72 395.28C7254.87 409.769 7265.96 420.863 7280 428.56C7294.49 436.257 7311.02 440.106 7329.58 440.106C7347.24 440.106 7363.32 436.936 7377.81 430.598C7392.75 424.259 7406.34 416.788 7418.56 408.185L7458.64 471.348C7438.71 488.101 7416.3 500.553 7391.39 508.703C7366.94 516.853 7343.17 520.928 7320.07 520.928Z" fill="black"/>
<path d="M2404.9 1374.46C2377.73 1374.46 2353.96 1370.62 2333.58 1362.92C2313.66 1354.77 2296.9 1343.22 2283.32 1328.28C2270.19 1312.89 2260.22 1294.32 2253.43 1272.59C2246.64 1250.4 2243.24 1224.82 2243.24 1195.84V923.491H2343.09V1206.03C2343.09 1223.69 2345.35 1238.63 2349.88 1250.85C2354.41 1263.08 2361.2 1272.36 2370.26 1278.7C2379.32 1285.04 2390.86 1288.21 2404.9 1288.21C2418.94 1288.21 2430.49 1285.04 2439.54 1278.7C2449.05 1272.36 2456.07 1263.08 2460.6 1250.85C2465.13 1238.63 2467.39 1223.69 2467.39 1206.03V923.491H2563.84V1195.84C2563.84 1224.82 2560.67 1250.4 2554.33 1272.59C2547.99 1294.32 2538.03 1312.89 2524.45 1328.28C2511.31 1343.22 2494.79 1354.77 2474.86 1362.92C2454.94 1370.62 2431.62 1374.46 2404.9 1374.46Z" fill="black"/>
<path d="M2870.59 1374.46C2834.82 1374.46 2806.29 1368.35 2785.01 1356.13C2764.18 1343.45 2749.01 1326.02 2739.5 1303.83C2729.99 1281.64 2725.24 1255.83 2725.24 1226.4V1107.55H2641.01V1033.52L2729.99 1029.44L2742.9 926.208H2825.08V1029.44H2967.72V1107.55H2825.08V1225.72C2825.08 1242.48 2827.57 1256.06 2832.55 1266.48C2837.54 1276.89 2845.23 1284.59 2855.65 1289.57C2866.06 1294.09 2879.42 1296.36 2895.72 1296.36C2908.86 1296.36 2920.86 1295.23 2931.72 1292.96C2942.59 1290.7 2953.01 1287.76 2962.97 1284.13L2980.63 1356.13C2965.69 1360.65 2949.16 1364.73 2931.04 1368.35C2913.38 1372.43 2893.23 1374.46 2870.59 1374.46Z" fill="black"/>
<path d="M3203.15 1366.31V1107.55H3067.31V1029.44H3303V1366.31H3203.15ZM3248.66 976.467C3229.64 976.467 3213.79 971.034 3201.12 960.167C3188.44 948.847 3182.1 934.132 3182.1 916.02C3182.1 897.456 3188.44 882.514 3201.12 871.195C3213.79 859.422 3229.64 853.536 3248.66 853.536C3268.13 853.536 3283.98 859.422 3296.21 871.195C3308.89 882.514 3315.23 897.456 3315.23 916.02C3315.23 934.132 3308.89 948.847 3296.21 960.167C3283.98 971.034 3268.13 976.467 3248.66 976.467Z" fill="black"/>
<path d="M3689.9 1374.46C3647.79 1374.46 3615.86 1361.79 3594.13 1336.43C3572.39 1311.07 3561.53 1277.12 3561.53 1234.55V968.996H3456.24V890.891H3661.37V1238.63C3661.37 1259.46 3667.03 1273.95 3678.35 1282.1C3689.67 1289.79 3702.13 1293.64 3715.71 1293.64C3723.86 1293.64 3732.01 1292.74 3740.16 1290.93C3748.77 1289.11 3758.28 1286.4 3768.69 1282.78L3790.43 1356.13C3773.22 1361.56 3757.37 1365.86 3742.88 1369.03C3728.84 1372.65 3711.18 1374.46 3689.9 1374.46Z" fill="black"/>
<path d="M4017.71 1366.31V1107.55H3881.86V1029.44H4117.55V1366.31H4017.71ZM4063.22 976.467C4044.2 976.467 4028.35 971.034 4015.67 960.167C4002.99 948.847 3996.65 934.132 3996.65 916.02C3996.65 897.456 4002.99 882.514 4015.67 871.195C4028.35 859.422 4044.2 853.536 4063.22 853.536C4082.69 853.536 4098.54 859.422 4110.76 871.195C4123.44 882.514 4129.78 897.456 4129.78 916.02C4129.78 934.132 4123.44 948.847 4110.76 960.167C4098.54 971.034 4082.69 976.467 4063.22 976.467Z" fill="black"/>
<path d="M4283.7 1366.31V1312.66L4459.63 1107.55H4304.76V1029.44H4598.19V1082.42L4421.59 1288.21H4602.94V1366.31H4283.7Z" fill="black"/>
<path d="M4795.58 1374.46C4772.94 1374.46 4753.24 1369.94 4736.49 1360.88C4720.19 1351.82 4707.51 1339.6 4698.45 1324.21C4689.39 1308.81 4684.87 1291.6 4684.87 1272.59C4684.87 1235.01 4701.85 1206.25 4735.81 1186.33C4770.22 1166.41 4827.28 1154.18 4906.98 1149.66C4905.62 1139.24 4902.22 1130.41 4896.79 1123.17C4891.35 1115.92 4883.43 1110.49 4873.02 1106.87C4863.05 1102.79 4850.37 1100.76 4834.98 1100.76C4824.11 1100.76 4813.24 1102.11 4802.37 1104.83C4791.51 1107.1 4780.19 1110.72 4768.41 1115.7C4757.09 1120.23 4745.09 1125.66 4732.41 1132L4697.09 1066.8C4712.49 1057.74 4728.56 1049.82 4745.32 1043.03C4762.53 1036.23 4780.19 1031.03 4798.3 1027.41C4816.87 1023.33 4835.66 1021.29 4854.68 1021.29C4886.37 1021.29 4913.54 1026.95 4936.18 1038.27C4958.83 1049.14 4976.26 1065.89 4988.49 1088.53C5000.71 1110.72 5006.83 1139.02 5006.83 1173.43V1366.31H4925.32L4917.85 1328.28H4915.13C4898.37 1340.96 4879.81 1351.82 4859.43 1360.88C4839.05 1369.94 4817.77 1374.46 4795.58 1374.46ZM4827.51 1297.04C4842.45 1297.04 4856.49 1294.09 4869.62 1288.21C4882.75 1281.87 4895.2 1274.17 4906.98 1265.12V1209.42C4873.92 1211.24 4848.11 1214.63 4829.54 1219.61C4811.43 1224.59 4798.75 1230.93 4791.51 1238.63C4784.26 1246.33 4780.64 1255.16 4780.64 1265.12C4780.64 1271.91 4782.45 1277.79 4786.07 1282.78C4790.15 1287.76 4795.58 1291.38 4802.37 1293.64C4809.62 1295.91 4818 1297.04 4827.51 1297.04Z" fill="black"/>
<path d="M5314.25 1374.46C5278.48 1374.46 5249.95 1368.35 5228.67 1356.13C5207.84 1343.45 5192.67 1326.02 5183.16 1303.83C5173.65 1281.64 5168.9 1255.83 5168.9 1226.4V1107.55H5084.67V1033.52L5173.65 1029.44L5186.56 926.208H5268.75V1029.44H5411.39V1107.55H5268.75V1225.72C5268.75 1242.48 5271.24 1256.06 5276.22 1266.48C5281.2 1276.89 5288.9 1284.59 5299.31 1289.57C5309.73 1294.09 5323.08 1296.36 5339.39 1296.36C5352.52 1296.36 5364.52 1295.23 5375.39 1292.96C5386.25 1290.7 5396.67 1287.76 5406.63 1284.13L5424.29 1356.13C5409.35 1360.65 5392.82 1364.73 5374.71 1368.35C5357.05 1372.43 5336.9 1374.46 5314.25 1374.46Z" fill="black"/>
<path d="M5646.82 1366.31V1107.55H5510.97V1029.44H5746.66V1366.31H5646.82ZM5692.32 976.467C5673.31 976.467 5657.46 971.034 5644.78 960.167C5632.1 948.847 5625.76 934.132 5625.76 916.02C5625.76 897.456 5632.1 882.514 5644.78 871.195C5657.46 859.422 5673.31 853.536 5692.32 853.536C5711.8 853.536 5727.64 859.422 5739.87 871.195C5752.55 882.514 5758.89 897.456 5758.89 916.02C5758.89 934.132 5752.55 948.847 5739.87 960.167C5727.64 971.034 5711.8 976.467 5692.32 976.467Z" fill="black"/>
<path d="M6069.04 1374.46C6039.6 1374.46 6011.75 1367.67 5985.49 1354.09C5959.23 1340.05 5937.94 1319.9 5921.64 1293.64C5905.34 1266.93 5897.19 1235.01 5897.19 1197.88C5897.19 1160.75 5905.34 1129.06 5921.64 1102.79C5937.94 1076.08 5959.23 1055.93 5985.49 1042.35C6011.75 1028.31 6039.6 1021.29 6069.04 1021.29C6098.47 1021.29 6126.32 1028.31 6152.58 1042.35C6178.85 1055.93 6200.13 1076.08 6216.43 1102.79C6232.73 1129.06 6240.88 1160.75 6240.88 1197.88C6240.88 1235.01 6232.73 1266.93 6216.43 1293.64C6200.13 1319.9 6178.85 1340.05 6152.58 1354.09C6126.32 1367.67 6098.47 1374.46 6069.04 1374.46ZM6069.04 1293.64C6084.43 1293.64 6097.11 1289.79 6107.07 1282.1C6117.49 1274.4 6125.19 1263.31 6130.17 1248.82C6135.6 1234.33 6138.32 1217.35 6138.32 1197.88C6138.32 1178.41 6135.6 1161.43 6130.17 1146.94C6125.19 1132.45 6117.49 1121.36 6107.07 1113.66C6097.11 1105.96 6084.43 1102.11 6069.04 1102.11C6053.64 1102.11 6040.73 1105.96 6030.32 1113.66C6020.36 1121.36 6012.66 1132.45 6007.22 1146.94C6002.24 1161.43 5999.75 1178.41 5999.75 1197.88C5999.75 1217.35 6002.24 1234.33 6007.22 1248.82C6012.66 1263.31 6020.36 1274.4 6030.32 1282.1C6040.73 1289.79 6053.64 1293.64 6069.04 1293.64Z" fill="black"/>
<path d="M6321.45 1366.31V1029.44H6402.95L6410.43 1074.27H6413.14C6427.63 1059.78 6444.16 1047.33 6462.73 1036.91C6481.75 1026.5 6503.93 1021.29 6529.29 1021.29C6567.33 1021.29 6595.18 1033.52 6612.84 1057.97C6630.5 1082.42 6639.33 1115.92 6639.33 1158.49V1366.31H6539.48V1171.39C6539.48 1148.75 6535.63 1132.22 6527.93 1121.81C6520.69 1111.4 6508.01 1106.19 6489.9 1106.19C6476.31 1106.19 6464.31 1109.36 6453.9 1115.7C6443.94 1121.58 6433.07 1130.19 6421.29 1141.51V1366.31H6321.45Z" fill="black"/>
<path d="M2353.28 2219.85V2070.43L2210.64 1777.03H2317.96L2362.79 1883.66C2369.58 1900.41 2376.15 1917.16 2382.49 1933.92C2389.28 1950.22 2396.07 1967.2 2402.86 1984.86H2405.58C2412.82 1967.2 2419.84 1950.22 2426.64 1933.92C2433.88 1917.16 2440.67 1900.41 2447.01 1883.66L2491.84 1777.03H2596.45L2453.81 2070.43V2219.85H2353.28Z" fill="black"/>
<path d="M2795.88 2219.85V1961.08H2660.03V1882.98H2895.72V2219.85H2795.88ZM2841.38 1830C2822.37 1830 2806.52 1824.57 2793.84 1813.7C2781.16 1802.38 2774.82 1787.67 2774.82 1769.56C2774.82 1750.99 2781.16 1736.05 2793.84 1724.73C2806.52 1712.96 2822.37 1707.07 2841.38 1707.07C2860.86 1707.07 2876.71 1712.96 2888.93 1724.73C2901.61 1736.05 2907.95 1750.99 2907.95 1769.56C2907.95 1787.67 2901.61 1802.38 2888.93 1813.7C2876.71 1824.57 2860.86 1830 2841.38 1830Z" fill="black"/>
<path d="M3238.47 2228C3203.61 2228 3171.91 2221.21 3143.38 2207.62C3115.3 2193.59 3092.89 2173.44 3076.14 2147.18C3059.83 2120.46 3051.68 2088.54 3051.68 2051.41C3051.68 2014.74 3060.06 1983.27 3076.81 1957.01C3093.57 1930.29 3115.3 1909.92 3142.02 1895.88C3168.74 1881.85 3197.04 1874.83 3226.93 1874.83C3261.79 1874.83 3291 1882.07 3314.55 1896.56C3338.09 1910.6 3355.75 1929.84 3367.53 1954.29C3379.75 1978.29 3385.87 2005.68 3385.87 2036.47C3385.87 2045.53 3385.19 2054.36 3383.83 2062.96C3382.92 2071.11 3382.02 2077.22 3381.11 2081.3H3125.72V2014.06H3313.87L3298.25 2033.08C3298.25 2005.91 3292.36 1985.53 3280.59 1971.95C3269.27 1957.91 3252.51 1950.9 3230.32 1950.9C3214.02 1950.9 3199.76 1954.52 3187.53 1961.76C3175.3 1969.01 3165.79 1980.1 3159 1995.04C3152.21 2009.98 3148.81 2028.78 3148.81 2051.41C3148.81 2074.51 3152.89 2093.52 3161.04 2108.47C3169.19 2122.95 3180.96 2133.82 3196.36 2141.07C3211.76 2148.31 3230.32 2151.93 3252.06 2151.93C3267.45 2151.93 3281.94 2149.89 3295.53 2145.82C3309.57 2141.74 3324.06 2135.86 3339 2128.16L3372.28 2188.61C3352.81 2200.83 3331.3 2210.57 3307.76 2217.81C3284.21 2224.6 3261.11 2228 3238.47 2228Z" fill="black"/>
<path d="M3689.9 2228C3647.79 2228 3615.86 2215.32 3594.13 2189.97C3572.39 2164.61 3561.53 2130.65 3561.53 2088.09V1822.53H3456.24V1744.43H3661.37V2092.16C3661.37 2112.99 3667.03 2127.48 3678.35 2135.63C3689.67 2143.33 3702.13 2147.18 3715.71 2147.18C3723.86 2147.18 3732.01 2146.27 3740.16 2144.46C3748.77 2142.65 3758.28 2139.93 3768.69 2136.31L3790.43 2209.66C3773.22 2215.1 3757.37 2219.4 3742.88 2222.57C3728.84 2226.19 3711.18 2228 3689.9 2228Z" fill="black"/>
<path d="M4002.76 2228C3960.2 2228 3925.78 2212.38 3899.52 2181.14C3873.71 2149.44 3860.8 2106.2 3860.8 2051.41C3860.8 2014.74 3867.6 1983.27 3881.18 1957.01C3895.22 1930.75 3913.33 1910.6 3935.52 1896.56C3957.71 1882.07 3980.8 1874.83 4004.8 1874.83C4023.37 1874.83 4039.44 1878 4053.03 1884.34C4066.61 1890.68 4078.84 1899.51 4089.71 1910.82H4092.42L4087.67 1858.53V1743.75H4187.52V2219.85H4106.01L4098.54 2185.21H4096.5C4084.27 2197.44 4069.78 2207.62 4053.03 2215.77C4036.73 2223.93 4019.97 2228 4002.76 2228ZM4028.57 2146.5C4039.9 2146.5 4050.31 2144.24 4059.82 2139.71C4069.78 2134.73 4079.06 2126.58 4087.67 2115.26V1978.74C4078.61 1970.59 4069.33 1964.93 4059.82 1961.76C4050.76 1958.14 4041.25 1956.33 4031.29 1956.33C4019.07 1956.33 4007.74 1959.73 3997.33 1966.52C3986.91 1973.31 3978.54 1983.72 3972.2 1997.76C3966.31 2011.34 3963.37 2028.78 3963.37 2050.06C3963.37 2083.11 3969.03 2107.56 3980.35 2123.41C3991.67 2138.8 4007.74 2146.5 4028.57 2146.5Z" fill="black"/>
<path fill-rule="evenodd" clip-rule="evenodd" d="M402.063 899.982C347.922 899.982 296.444 890.662 247.628 872.023C199.7 853.385 157.097 825.427 119.82 788.149C82.5427 749.985 53.2533 703.388 31.952 648.359C10.6507 592.443 0 528.096 0 455.316C0 359.46 18.1949 277.805 54.5847 210.351C91.862 142.009 141.565 90.0869 203.694 54.5847C266.711 18.1949 336.827 0 414.045 0C469.073 0 518.776 11.5382 563.154 34.6147C607.532 56.8036 644.365 82.0989 673.655 110.501L565.817 231.652C545.403 212.126 522.77 197.037 497.919 186.387C473.955 174.848 445.997 169.079 414.045 169.079C373.217 169.079 336.827 180.618 304.875 203.694C272.923 225.883 247.628 257.835 228.989 299.55C210.351 341.265 201.031 390.968 201.031 448.659C201.031 508.126 210.351 559.16 228.989 601.763C247.628 643.478 273.367 675.43 306.207 697.619C339.934 719.808 378.543 730.902 422.033 730.902C453.985 730.902 482.83 723.802 508.569 709.601C534.154 695.485 557.545 676.986 578.745 654.101V653.563H774.451V1207.4C774.451 1242.01 778.889 1271.3 787.765 1295.27C796.64 1319.23 809.953 1337.43 827.705 1349.85C845.456 1362.28 868.088 1368.49 895.602 1368.49C923.117 1368.49 945.749 1362.28 963.5 1349.85C982.139 1337.43 995.896 1319.23 1004.77 1295.27C1013.65 1271.3 1018.09 1242.01 1018.09 1207.4V653.563H1207.13V1187.43C1207.13 1244.23 1200.92 1294.38 1188.5 1337.87C1184.83 1350.42 1180.56 1362.43 1175.66 1373.91L1257.66 1568.96C1270.97 1601.8 1283.84 1634.64 1296.27 1667.48C1309.58 1699.43 1322.9 1732.71 1336.21 1767.33H1341.53C1355.73 1732.71 1369.49 1699.43 1382.81 1667.48C1397.01 1634.64 1410.32 1601.8 1422.75 1568.96L1510.61 1359.94H1715.64L1436.06 1935.08V2227.97H1239.02V1935.08L1034.44 1514.23C1033.87 1514.47 1033.3 1514.7 1032.73 1514.94C993.677 1530.02 947.968 1537.57 895.602 1537.57C842.349 1537.57 795.753 1530.02 755.812 1514.94C716.76 1498.96 683.92 1476.33 657.294 1447.04C631.555 1416.86 612.028 1380.47 598.715 1337.87C585.402 1294.38 578.745 1244.23 578.745 1187.43V859.653C573.193 862.585 567.552 865.377 561.823 868.029C513.895 889.331 460.641 899.982 402.063 899.982Z" fill="url(#paint0_linear_1203_3270)"/>
<defs>
<linearGradient id="paint0_linear_1203_3270" x1="-94.8613" y1="-128.698" x2="2102.64" y2="2501.8" gradientUnits="userSpaceOnUse">
<stop stop-color="#FF0202"/>
<stop offset="0.0001" stop-color="#FF490F"/>
<stop offset="1" stop-color="#BDA6FF"/>
</linearGradient>
</defs>
</svg>
