<svg id="visual" viewBox="0 0 900 600" width="900" height="600" xmlns="http://www.w3.org/2000/svg" xmlns:xlink="http://www.w3.org/1999/xlink" version="1.1"><path d="M0 133L13.7 156C27.3 179 54.7 225 82 227C109.3 229 136.7 187 163.8 172C191 157 218 169 245.2 166C272.3 163 299.7 145 327 147C354.3 149 381.7 171 409 169C436.3 167 463.7 141 491 151C518.3 161 545.7 207 573 211C600.3 215 627.7 177 654.8 151C682 125 709 111 736.2 138C763.3 165 790.7 233 818 262C845.3 291 872.7 281 886.3 276L900 271L900 0L886.3 0C872.7 0 845.3 0 818 0C790.7 0 763.3 0 736.2 0C709 0 682 0 654.8 0C627.7 0 600.3 0 573 0C545.7 0 518.3 0 491 0C463.7 0 436.3 0 409 0C381.7 0 354.3 0 327 0C299.7 0 272.3 0 245.2 0C218 0 191 0 163.8 0C136.7 0 109.3 0 82 0C54.7 0 27.3 0 13.7 0L0 0Z" fill="#05152a"></path><path d="M0 271L13.7 298C27.3 325 54.7 379 82 372C109.3 365 136.7 297 163.8 286C191 275 218 321 245.2 324C272.3 327 299.7 287 327 271C354.3 255 381.7 263 409 263C436.3 263 463.7 255 491 285C518.3 315 545.7 383 573 395C600.3 407 627.7 363 654.8 323C682 283 709 247 736.2 266C763.3 285 790.7 359 818 378C845.3 397 872.7 361 886.3 343L900 325L900 269L886.3 274C872.7 279 845.3 289 818 260C790.7 231 763.3 163 736.2 136C709 109 682 123 654.8 149C627.7 175 600.3 213 573 209C545.7 205 518.3 159 491 149C463.7 139 436.3 165 409 167C381.7 169 354.3 147 327 145C299.7 143 272.3 161 245.2 164C218 167 191 155 163.8 170C136.7 185 109.3 227 82 225C54.7 223 27.3 177 13.7 154L0 131Z" fill="#041833"></path><path d="M0 355L13.7 378C27.3 401 54.7 447 82 437C109.3 427 136.7 361 163.8 352C191 343 218 391 245.2 396C272.3 401 299.7 363 327 355C354.3 347 381.7 369 409 380C436.3 391 463.7 391 491 410C518.3 429 545.7 467 573 464C600.3 461 627.7 417 654.8 390C682 363 709 353 736.2 371C763.3 389 790.7 435 818 456C845.3 477 872.7 473 886.3 471L900 469L900 323L886.3 341C872.7 359 845.3 395 818 376C790.7 357 763.3 283 736.2 264C709 245 682 281 654.8 321C627.7 361 600.3 405 573 393C545.7 381 518.3 313 491 283C463.7 253 436.3 261 409 261C381.7 261 354.3 253 327 269C299.7 285 272.3 325 245.2 322C218 319 191 273 163.8 284C136.7 295 109.3 363 82 370C54.7 377 27.3 323 13.7 296L0 269Z" fill="#07234a"></path><path d="M0 601L13.7 601C27.3 601 54.7 601 82 601C109.3 601 136.7 601 163.8 601C191 601 218 601 245.2 601C272.3 601 299.7 601 327 601C354.3 601 381.7 601 409 601C436.3 601 463.7 601 491 601C518.3 601 545.7 601 573 601C600.3 601 627.7 601 654.8 601C682 601 709 601 736.2 601C763.3 601 790.7 601 818 601C845.3 601 872.7 601 886.3 601L900 601L900 467L886.3 469C872.7 471 845.3 475 818 454C790.7 433 763.3 387 736.2 369C709 351 682 361 654.8 388C627.7 415 600.3 459 573 462C545.7 465 518.3 427 491 408C463.7 389 436.3 389 409 378C381.7 367 354.3 345 327 353C299.7 361 272.3 399 245.2 394C218 389 191 341 163.8 350C136.7 359 109.3 425 82 435C54.7 445 27.3 399 13.7 376L0 353Z" fill="#0f3870"></path></svg>